# xmcd
#
# Track frame offsets: 
#        150
#        5758
#        16507
#        24259
#        30541
#        42086
#        53944
#        61633
#        66841
#        71023
#        84020
#        102446
#        132976
#        148471
#        160317
#
# Disc length: 2280 seconds
#
# Revision: 2
# Processed by: cddbd v1.5.2PL0 Copyright (c) Steve Scherf et al.
# Submitted via: ExactAudioCopy v1.3
#
DISCID=bf08e60f
DTITLE=Clarence White - Clarence White_Flatpick CD2
DYEAR=2006
DGENRE=Bluegrass
TTITLE0=Kickin' Mules
TTITLE1=Sheik of Araby
TTITLE2=Soldier's Joy and Black Mountain Rag
TTITLE3=Way Downtown
TTITLE4=Crawdad Song
TTITLE5=New River Train
TTITLE6=Julius Finkbine's Rag
TTITLE7=Billy In The Lowground
TTITLE8=Fire On The Mountain
TTITLE9=Sally Goodin'
TTITLE10=Black Mountain Blues
TTITLE11=Farewell Blues
TTITLE12=Moonlight Waltz
TTITLE13=Old Joe Clark
TTITLE14=Lost Highway
EXTD=
EXTT0=
EXTT1=
EXTT2=
EXTT3=
EXTT4=
EXTT5=
EXTT6=
EXTT7=
EXTT8=
EXTT9=
EXTT10=
EXTT11=
EXTT12=
EXTT13=
EXTT14=
PLAYORDER=
